<mxfile host="Electron" modified="2023-05-11T10:32:07.811Z" agent="Mozilla/5.0 (Windows NT 10.0; Win64; x64) AppleWebKit/537.36 (KHTML, like Gecko) draw.io/21.2.8 Chrome/112.0.5615.165 Electron/24.2.0 Safari/537.36" etag="UKKa43jZUJMLZEW5e040" version="21.2.8" type="device">
  <diagram name="Page-1" id="qh_8IKujOstJoOTxvark">
    <mxGraphModel dx="1134" dy="741" grid="1" gridSize="10" guides="1" tooltips="1" connect="1" arrows="1" fold="1" page="1" pageScale="1" pageWidth="827" pageHeight="1169" math="0" shadow="0">
      <root>
        <mxCell id="0" />
        <mxCell id="1" parent="0" />
        <mxCell id="6wL99WekCMIKOpQIYjJw-1" value="Bird" style="swimlane;fontStyle=1;align=center;verticalAlign=top;childLayout=stackLayout;horizontal=1;startSize=26;horizontalStack=0;resizeParent=1;resizeParentMax=0;resizeLast=0;collapsible=1;marginBottom=0;whiteSpace=wrap;html=1;" vertex="1" parent="1">
          <mxGeometry x="334" y="230" width="160" height="60" as="geometry" />
        </mxCell>
        <mxCell id="6wL99WekCMIKOpQIYjJw-2" value="# color: string" style="text;strokeColor=none;fillColor=none;align=left;verticalAlign=top;spacingLeft=4;spacingRight=4;overflow=hidden;rotatable=0;points=[[0,0.5],[1,0.5]];portConstraint=eastwest;whiteSpace=wrap;html=1;" vertex="1" parent="6wL99WekCMIKOpQIYjJw-1">
          <mxGeometry y="26" width="160" height="26" as="geometry" />
        </mxCell>
        <mxCell id="6wL99WekCMIKOpQIYjJw-3" value="" style="line;strokeWidth=1;fillColor=none;align=left;verticalAlign=middle;spacingTop=-1;spacingLeft=3;spacingRight=3;rotatable=0;labelPosition=right;points=[];portConstraint=eastwest;strokeColor=inherit;" vertex="1" parent="6wL99WekCMIKOpQIYjJw-1">
          <mxGeometry y="52" width="160" height="8" as="geometry" />
        </mxCell>
        <mxCell id="6wL99WekCMIKOpQIYjJw-9" style="edgeStyle=orthogonalEdgeStyle;rounded=0;orthogonalLoop=1;jettySize=auto;html=1;endArrow=open;endFill=0;" edge="1" parent="1" source="6wL99WekCMIKOpQIYjJw-5" target="6wL99WekCMIKOpQIYjJw-1">
          <mxGeometry relative="1" as="geometry">
            <Array as="points">
              <mxPoint x="190" y="400" />
              <mxPoint x="410" y="400" />
            </Array>
          </mxGeometry>
        </mxCell>
        <mxCell id="6wL99WekCMIKOpQIYjJw-25" style="edgeStyle=orthogonalEdgeStyle;rounded=0;orthogonalLoop=1;jettySize=auto;html=1;endArrow=classic;endFill=0;" edge="1" parent="1" source="6wL99WekCMIKOpQIYjJw-5" target="6wL99WekCMIKOpQIYjJw-21">
          <mxGeometry relative="1" as="geometry">
            <Array as="points">
              <mxPoint x="180" y="460" />
              <mxPoint x="180" y="460" />
            </Array>
          </mxGeometry>
        </mxCell>
        <mxCell id="6wL99WekCMIKOpQIYjJw-5" value="Canary Bird" style="swimlane;fontStyle=1;align=center;verticalAlign=top;childLayout=stackLayout;horizontal=1;startSize=26;horizontalStack=0;resizeParent=1;resizeParentMax=0;resizeLast=0;collapsible=1;marginBottom=0;whiteSpace=wrap;html=1;" vertex="1" parent="1">
          <mxGeometry x="110" y="490" width="160" height="34" as="geometry" />
        </mxCell>
        <mxCell id="6wL99WekCMIKOpQIYjJw-7" value="" style="line;strokeWidth=1;fillColor=none;align=left;verticalAlign=middle;spacingTop=-1;spacingLeft=3;spacingRight=3;rotatable=0;labelPosition=right;points=[];portConstraint=eastwest;strokeColor=inherit;" vertex="1" parent="6wL99WekCMIKOpQIYjJw-5">
          <mxGeometry y="26" width="160" height="8" as="geometry" />
        </mxCell>
        <mxCell id="6wL99WekCMIKOpQIYjJw-26" style="edgeStyle=orthogonalEdgeStyle;rounded=0;orthogonalLoop=1;jettySize=auto;html=1;endArrow=open;endFill=0;" edge="1" parent="1">
          <mxGeometry relative="1" as="geometry">
            <mxPoint x="630" y="490" as="sourcePoint" />
            <mxPoint x="414.0000000000001" y="290" as="targetPoint" />
            <Array as="points">
              <mxPoint x="630" y="400" />
              <mxPoint x="414" y="400" />
            </Array>
          </mxGeometry>
        </mxCell>
        <mxCell id="6wL99WekCMIKOpQIYjJw-30" style="edgeStyle=orthogonalEdgeStyle;rounded=0;orthogonalLoop=1;jettySize=auto;html=1;endArrow=classic;endFill=0;" edge="1" parent="1" source="6wL99WekCMIKOpQIYjJw-10" target="6wL99WekCMIKOpQIYjJw-27">
          <mxGeometry relative="1" as="geometry">
            <Array as="points">
              <mxPoint x="635" y="460" />
              <mxPoint x="635" y="460" />
            </Array>
          </mxGeometry>
        </mxCell>
        <mxCell id="6wL99WekCMIKOpQIYjJw-10" value="Penguin" style="swimlane;fontStyle=1;align=center;verticalAlign=top;childLayout=stackLayout;horizontal=1;startSize=26;horizontalStack=0;resizeParent=1;resizeParentMax=0;resizeLast=0;collapsible=1;marginBottom=0;whiteSpace=wrap;html=1;" vertex="1" parent="1">
          <mxGeometry x="555" y="490" width="160" height="34" as="geometry" />
        </mxCell>
        <mxCell id="6wL99WekCMIKOpQIYjJw-12" value="" style="line;strokeWidth=1;fillColor=none;align=left;verticalAlign=middle;spacingTop=-1;spacingLeft=3;spacingRight=3;rotatable=0;labelPosition=right;points=[];portConstraint=eastwest;strokeColor=inherit;" vertex="1" parent="6wL99WekCMIKOpQIYjJw-10">
          <mxGeometry y="26" width="160" height="8" as="geometry" />
        </mxCell>
        <mxCell id="6wL99WekCMIKOpQIYjJw-21" value="&lt;p style=&quot;border-color: var(--border-color); font-weight: 400; margin: 4px 0px 0px;&quot;&gt;&lt;b style=&quot;border-color: var(--border-color);&quot;&gt;&amp;lt;&amp;lt;Interface&amp;gt;&amp;gt;&lt;/b&gt;&lt;/p&gt;&lt;p style=&quot;border-color: var(--border-color); font-weight: 400; margin: 4px 0px 0px;&quot;&gt;&lt;b style=&quot;border-color: var(--border-color);&quot;&gt;IFly&lt;/b&gt;&lt;/p&gt;" style="swimlane;fontStyle=1;align=center;verticalAlign=top;childLayout=stackLayout;horizontal=1;startSize=50;horizontalStack=0;resizeParent=1;resizeParentMax=0;resizeLast=0;collapsible=1;marginBottom=0;whiteSpace=wrap;html=1;" vertex="1" parent="1">
          <mxGeometry x="110" y="230" width="170" height="136" as="geometry" />
        </mxCell>
        <mxCell id="6wL99WekCMIKOpQIYjJw-35" value="# Longitute: double" style="text;strokeColor=none;fillColor=none;align=left;verticalAlign=top;spacingLeft=4;spacingRight=4;overflow=hidden;rotatable=0;points=[[0,0.5],[1,0.5]];portConstraint=eastwest;whiteSpace=wrap;html=1;" vertex="1" parent="6wL99WekCMIKOpQIYjJw-21">
          <mxGeometry y="50" width="170" height="26" as="geometry" />
        </mxCell>
        <mxCell id="6wL99WekCMIKOpQIYjJw-36" value="# Latittude: double&lt;br&gt;" style="text;strokeColor=none;fillColor=none;align=left;verticalAlign=top;spacingLeft=4;spacingRight=4;overflow=hidden;rotatable=0;points=[[0,0.5],[1,0.5]];portConstraint=eastwest;whiteSpace=wrap;html=1;" vertex="1" parent="6wL99WekCMIKOpQIYjJw-21">
          <mxGeometry y="76" width="170" height="26" as="geometry" />
        </mxCell>
        <mxCell id="6wL99WekCMIKOpQIYjJw-23" value="" style="line;strokeWidth=1;fillColor=none;align=left;verticalAlign=middle;spacingTop=-1;spacingLeft=3;spacingRight=3;rotatable=0;labelPosition=right;points=[];portConstraint=eastwest;strokeColor=inherit;" vertex="1" parent="6wL99WekCMIKOpQIYjJw-21">
          <mxGeometry y="102" width="170" height="8" as="geometry" />
        </mxCell>
        <mxCell id="6wL99WekCMIKOpQIYjJw-18" value="# fly()" style="text;strokeColor=none;fillColor=none;align=left;verticalAlign=top;spacingLeft=4;spacingRight=4;overflow=hidden;rotatable=0;points=[[0,0.5],[1,0.5]];portConstraint=eastwest;whiteSpace=wrap;html=1;" vertex="1" parent="6wL99WekCMIKOpQIYjJw-21">
          <mxGeometry y="110" width="170" height="26" as="geometry" />
        </mxCell>
        <mxCell id="6wL99WekCMIKOpQIYjJw-27" value="&lt;p style=&quot;border-color: var(--border-color); font-weight: 400; margin: 4px 0px 0px;&quot;&gt;&lt;b style=&quot;border-color: var(--border-color);&quot;&gt;&amp;lt;&amp;lt;Interface&amp;gt;&amp;gt;&lt;/b&gt;&lt;/p&gt;&lt;p style=&quot;border-color: var(--border-color); font-weight: 400; margin: 4px 0px 0px;&quot;&gt;&lt;b style=&quot;border-color: var(--border-color);&quot;&gt;ISwim&lt;/b&gt;&lt;/p&gt;" style="swimlane;fontStyle=1;align=center;verticalAlign=top;childLayout=stackLayout;horizontal=1;startSize=50;horizontalStack=0;resizeParent=1;resizeParentMax=0;resizeLast=0;collapsible=1;marginBottom=0;whiteSpace=wrap;html=1;" vertex="1" parent="1">
          <mxGeometry x="550" y="230" width="170" height="84" as="geometry" />
        </mxCell>
        <mxCell id="6wL99WekCMIKOpQIYjJw-28" value="" style="line;strokeWidth=1;fillColor=none;align=left;verticalAlign=middle;spacingTop=-1;spacingLeft=3;spacingRight=3;rotatable=0;labelPosition=right;points=[];portConstraint=eastwest;strokeColor=inherit;" vertex="1" parent="6wL99WekCMIKOpQIYjJw-27">
          <mxGeometry y="50" width="170" height="8" as="geometry" />
        </mxCell>
        <mxCell id="6wL99WekCMIKOpQIYjJw-29" value="# fly()" style="text;strokeColor=none;fillColor=none;align=left;verticalAlign=top;spacingLeft=4;spacingRight=4;overflow=hidden;rotatable=0;points=[[0,0.5],[1,0.5]];portConstraint=eastwest;whiteSpace=wrap;html=1;" vertex="1" parent="6wL99WekCMIKOpQIYjJw-27">
          <mxGeometry y="58" width="170" height="26" as="geometry" />
        </mxCell>
        <mxCell id="6wL99WekCMIKOpQIYjJw-34" style="edgeStyle=orthogonalEdgeStyle;rounded=0;orthogonalLoop=1;jettySize=auto;html=1;endArrow=open;endFill=0;" edge="1" parent="1" source="6wL99WekCMIKOpQIYjJw-32" target="6wL99WekCMIKOpQIYjJw-1">
          <mxGeometry relative="1" as="geometry">
            <Array as="points">
              <mxPoint x="412" y="380" />
              <mxPoint x="412" y="380" />
            </Array>
          </mxGeometry>
        </mxCell>
        <mxCell id="6wL99WekCMIKOpQIYjJw-32" value="Moa&lt;span style=&quot;white-space: pre;&quot;&gt;	&lt;/span&gt;" style="swimlane;fontStyle=1;align=center;verticalAlign=top;childLayout=stackLayout;horizontal=1;startSize=26;horizontalStack=0;resizeParent=1;resizeParentMax=0;resizeLast=0;collapsible=1;marginBottom=0;whiteSpace=wrap;html=1;" vertex="1" parent="1">
          <mxGeometry x="332" y="489" width="160" height="34" as="geometry" />
        </mxCell>
        <mxCell id="6wL99WekCMIKOpQIYjJw-33" value="" style="line;strokeWidth=1;fillColor=none;align=left;verticalAlign=middle;spacingTop=-1;spacingLeft=3;spacingRight=3;rotatable=0;labelPosition=right;points=[];portConstraint=eastwest;strokeColor=inherit;" vertex="1" parent="6wL99WekCMIKOpQIYjJw-32">
          <mxGeometry y="26" width="160" height="8" as="geometry" />
        </mxCell>
      </root>
    </mxGraphModel>
  </diagram>
</mxfile>
